# xmcd
#
# Track frame offsets:
#	150
#	28728
#	58631
#	88557
#	121179
#	146499
#	186775
#	216666
#	242834
#	274463
#	297785
#
# Disc length: 4284 seconds
#
# Revision: 0
# Processed by: cddbd v1.5.2PL0 Copyright (c) Steve Scherf et al.
# Submitted via: EasyCDDAExtractor 2010.6.0.0
#
DISCID=ab10ba0b
DTITLE=Various Artist - Techno (Vol. 3)
DYEAR=2002
DGENRE=Techno
TTITLE0=Phat Ladies - Risin' Up (Club Extended)
TTITLE1=Alex K - Run 2 Paradise (Club Mix)
TTITLE2=Anastasia - Megamix 2002
TTITLE3=ATB - Hold You (Club Mix)
TTITLE4=Bingo Boys - Mountain Song (Extended Vinyl Mix)
TTITLE5=Brooklyn Bounce - Club Bizzare (DJ Scot Project Mix)
TTITLE6=Casa Cuba - Perhaps Perhaps (Safri Duo Mix)
TTITLE7=Central Sector - Tonic
TTITLE8=Central seven - Mystery (Club Extended Mix)
TTITLE9=Clever - I'm On Fire (Remix)
TTITLE10=Da Life - Lost In Time
EXTD=
EXTT0=
EXTT1=
EXTT2=
EXTT3=
EXTT4=
EXTT5=
EXTT6=
EXTT7=
EXTT8=
EXTT9=
EXTT10=
PLAYORDER=
